HIERARCHY
ROOT hip
{
	OFFSET 0.000000 0.000000 0.000000 
	CHANNELS 6 Xposition Yposition Zposition Zrotation Yrotation Xrotation
	JOINT abdomen
	{
		OFFSET 0.000000 20.688101 -0.731520 
		CHANNELS 3 Zrotation Xrotation Yrotation
		JOINT chest
		{
			OFFSET 0.000000 11.704300 -0.487680 
			CHANNELS 3 Zrotation Xrotation Yrotation
			JOINT neck
			{
				OFFSET 0.000000 22.189400 -2.194560 
				CHANNELS 3 Zrotation Xrotation Yrotation
				JOINT head
				{
					OFFSET -0.243840 7.071330 1.219200 
					CHANNELS 3 Zrotation Xrotation Yrotation
					JOINT leftEye
					{
						OFFSET 4.145280 8.046740 8.046720 
						CHANNELS 3 Zrotation Xrotation Yrotation
						End Site
						{
							OFFSET 1.000000 0.000000 0.000000 
						}
					}
					JOINT rightEye
					{
						OFFSET -3.657600 8.046740 8.046720 
						CHANNELS 3 Zrotation Xrotation Yrotation
						End Site
						{
							OFFSET 1.000000 0.000000 0.000000 
						}
					}
				}
			}
			JOINT rCollar
			{
				OFFSET -2.682240 19.263399 -4.876800 
				CHANNELS 3 Zrotation Xrotation Yrotation
				JOINT rShldr
				{
					OFFSET -8.778240 -1.950730 1.463040 
					CHANNELS 3 Zrotation Xrotation Yrotation
					JOINT rForeArm
					{
						OFFSET -28.174200 -1.711500 0.487680 
						CHANNELS 3 Zrotation Xrotation Yrotation
						JOINT rHand
						{
							OFFSET -22.587900 0.773209 7.071360 
							CHANNELS 3 Zrotation Xrotation Yrotation
							JOINT rThumb1
							{
								OFFSET -1.219200 -0.487915 3.413760 
								CHANNELS 3 Zrotation Xrotation Yrotation
								JOINT rThumb2
								{
									OFFSET -3.370350 -0.524490 3.413760 
									CHANNELS 3 Zrotation Xrotation Yrotation
									End Site
									{
										OFFSET -1.782710 -1.182140 1.430490 
									}
								}
							}
							JOINT rIndex1
							{
								OFFSET -7.759470 0.938293 5.608320 
								CHANNELS 3 Zrotation Xrotation Yrotation
								JOINT rIndex2
								{
									OFFSET -2.540570 -0.884171 1.565380 
									CHANNELS 3 Zrotation Xrotation Yrotation
									End Site
									{
										OFFSET -1.625190 -0.234802 1.165020 
									}
								}
							}
							JOINT rMid1
							{
								OFFSET -8.247140 1.182130 3.413760 
								CHANNELS 3 Zrotation Xrotation Yrotation
								JOINT rMid2
								{
									OFFSET -3.101650 -0.590103 1.064700 
									CHANNELS 3 Zrotation Xrotation Yrotation
									End Site
									{
										OFFSET -2.485470 -0.328903 0.837420 
									}
								}
							}
							JOINT rRing1
							{
								OFFSET -8.828220 0.546677 1.516780 
								CHANNELS 3 Zrotation Xrotation Yrotation
								JOINT rRing2
								{
									OFFSET -2.609340 -0.819778 -0.019849 
									CHANNELS 3 Zrotation Xrotation Yrotation
									End Site
									{
										OFFSET -2.338420 -0.294052 0.168128 
									}
								}
							}
							JOINT rPinky1
							{
								OFFSET -8.272020 -0.047791 -0.458400 
								CHANNELS 3 Zrotation Xrotation Yrotation
								JOINT rPinky2
								{
									OFFSET -1.827340 -0.647385 -0.700984 
									CHANNELS 3 Zrotation Xrotation Yrotation
									End Site
									{
										OFFSET -1.692250 -0.517670 -0.607171 
									}
								}
							}
						}
					}
				}
			}
			JOINT lCollar
			{
				OFFSET 2.682240 19.263399 -4.876800 
				CHANNELS 3 Zrotation Xrotation Yrotation
				JOINT lShldr
				{
					OFFSET 8.778240 -1.950730 1.463040 
					CHANNELS 3 Zrotation Xrotation Yrotation
					JOINT lForeArm
					{
						OFFSET 28.174200 -1.711500 0.487680 
						CHANNELS 3 Zrotation Xrotation Yrotation
						JOINT lHand
						{
							OFFSET 22.587900 0.773209 7.071360 
							CHANNELS 3 Zrotation Xrotation Yrotation
							JOINT lThumb1
							{
								OFFSET 1.219200 -0.487915 3.413760 
								CHANNELS 3 Zrotation Xrotation Yrotation
								JOINT lThumb2
								{
									OFFSET 3.370350 -0.524490 3.413760 
									CHANNELS 3 Zrotation Xrotation Yrotation
									End Site
									{
										OFFSET 1.782710 -1.182140 1.430490 
									}
								}
							}
							JOINT lIndex1
							{
								OFFSET 7.759470 0.938293 5.608320 
								CHANNELS 3 Zrotation Xrotation Yrotation
								JOINT lIndex2
								{
									OFFSET 2.540570 -0.884171 1.565380 
									CHANNELS 3 Zrotation Xrotation Yrotation
									End Site
									{
										OFFSET 1.625190 -0.234802 1.165020 
									}
								}
							}
							JOINT lMid1
							{
								OFFSET 8.247140 1.182130 3.413760 
								CHANNELS 3 Zrotation Xrotation Yrotation
								JOINT lMid2
								{
									OFFSET 3.101650 -0.590103 1.064700 
									CHANNELS 3 Zrotation Xrotation Yrotation
									End Site
									{
										OFFSET 2.485470 -0.328903 0.837420 
									}
								}
							}
							JOINT lRing1
							{
								OFFSET 8.828220 0.546677 1.516780 
								CHANNELS 3 Zrotation Xrotation Yrotation
								JOINT lRing2
								{
									OFFSET 2.609340 -0.819778 -0.019849 
									CHANNELS 3 Zrotation Xrotation Yrotation
									End Site
									{
										OFFSET 2.338420 -0.294052 0.168128 
									}
								}
							}
							JOINT lPinky1
							{
								OFFSET 8.272020 -0.047791 -0.458400 
								CHANNELS 3 Zrotation Xrotation Yrotation
								JOINT lPinky2
								{
									OFFSET 1.827340 -0.647385 -0.700984 
									CHANNELS 3 Zrotation Xrotation Yrotation
									End Site
									{
										OFFSET 1.692250 -0.517670 -0.607171 
									}
								}
							}
						}
					}
				}
			}
		}
	}
	JOINT rButtock
	{
		OFFSET -8.778240 4.350840 1.219200 
		CHANNELS 3 Zrotation Xrotation Yrotation
		JOINT rThigh
		{
			OFFSET 0.000000 -1.706870 -2.194560 
			CHANNELS 3 Zrotation Xrotation Yrotation
			JOINT rShin
			{
				OFFSET 0.000000 -36.819901 0.731520 
				CHANNELS 3 Zrotation Xrotation Yrotation
				JOINT rFoot
				{
					OFFSET 0.731520 -45.110401 -5.120640 
					CHANNELS 3 Zrotation Xrotation Yrotation
					End Site
					{
						OFFSET -1.122100 -3.699640 12.103000 
					}
				}
			}
		}
	}
	JOINT lButtock
	{
		OFFSET 8.778240 4.350840 1.219200 
		CHANNELS 3 Zrotation Xrotation Yrotation
		JOINT lThigh
		{
			OFFSET 0.000000 -1.706870 -2.194560 
			CHANNELS 3 Zrotation Xrotation Yrotation
			JOINT lShin
			{
				OFFSET 0.000000 -36.819901 0.731520 
				CHANNELS 3 Zrotation Xrotation Yrotation
				JOINT lFoot
				{
					OFFSET -0.731520 -45.110401 -5.120640 
					CHANNELS 3 Zrotation Xrotation Yrotation
					End Site
					{
						OFFSET 1.122100 -3.699640 12.103000 
					}
				}
			}
		}
	}
}
MOTION
Frames: 8
Frame Time: 0.008333
48.185299 84.898201 220.440994 -180.651993 -6.112400 181.149994 -2.944480 4.824210 1.842490 0.514348 -9.058720 0.598476 -7.929550 10.299700 -4.689550 12.116700 -18.908600 -6.773280 -0.000000 0.000000 0.000000 -0.000000 0.000000 0.000000 -0.000000 -0.000000 0.000000 83.764503 32.529598 -10.042000 -16.668400 -9.323660 31.096001 -0.533908 20.316999 2.982510 -0.000000 0.000000 0.000000 -0.000000 0.000000 0.000000 -0.000000 0.000000 0.000000 7.730910 5.474880 0.417314 -0.000000 0.000000 0.000000 2.905540 0.965183 0.102902 -0.000000 0.000000 0.000000 10.278600 0.731801 0.025912 -0.000000 0.000000 0.000000 2.221670 -0.733487 -0.208920 -0.000000 -0.000000 0.000000 -82.128601 33.267799 9.757940 15.900200 -8.595070 -29.461700 0.260278 14.384500 -2.065510 -0.000000 -0.000000 0.000000 -0.000000 -0.000000 0.000000 -0.000000 -0.000000 0.000000 -7.730910 5.474880 -0.417314 -0.000000 -0.000000 0.000000 -2.905540 0.965183 -0.102902 -0.000000 -0.000000 0.000000 -10.278600 0.731801 -0.025912 -0.000000 -0.000000 0.000000 -2.221670 -0.733487 0.208920 -0.000000 0.000000 -0.000000 7.979330 -29.201300 9.354800 -0.230484 34.731602 0.305781 -6.786120 -10.152900 -24.703899 0.000000 0.000000 0.000000 -5.675950 3.460640 -12.357700 0.150608 22.748400 -0.279074 0.727937 -11.996500 2.842490 
48.285900 84.883301 220.018005 -180.755005 -6.164000 181.246994 -3.028230 4.764330 1.827390 0.607846 -8.986410 0.602820 -7.949850 10.214100 -4.659100 12.126100 -19.061800 -6.668790 -0.000000 0.000000 0.000000 -0.000000 0.000000 0.000000 -0.000000 0.000000 0.000000 83.732002 32.750198 -10.082300 -16.782101 -9.434620 31.341700 -0.551968 20.627300 3.032490 -0.000000 0.000000 -0.000000 -0.000000 0.000000 -0.000000 -0.000000 0.000000 -0.000000 7.730910 5.474880 0.417314 -0.000000 0.000000 -0.000000 2.905540 0.965183 0.102902 -0.000000 0.000000 -0.000000 10.278600 0.731801 0.025912 -0.000000 0.000000 -0.000000 2.221670 -0.733487 -0.208920 -0.000000 0.000000 0.000000 -82.112999 33.233101 9.783980 15.950300 -8.641170 -29.567801 0.250884 14.118300 -2.025780 -0.000000 -0.000000 0.000000 -0.000000 -0.000000 0.000000 -0.000000 -0.000000 0.000000 -7.730910 5.474880 -0.417314 -0.000000 -0.000000 0.000000 -2.905540 0.965183 -0.102902 -0.000000 -0.000000 0.000000 -10.278600 0.731801 -0.025912 -0.000000 -0.000000 0.000000 -2.221670 -0.733487 0.208920 -0.000000 0.000000 -0.000000 8.034900 -29.065901 9.170100 -0.233167 34.887299 0.310325 -6.763920 -10.376500 -24.301500 0.000000 0.000000 0.000000 -5.573130 3.514840 -12.203800 0.152121 22.966200 -0.281749 0.655948 -11.652000 2.654420 
48.418201 84.862396 219.604996 -180.798996 -6.159700 181.371002 -3.039150 4.676890 1.872950 0.628249 -8.962960 0.619356 -7.911970 10.158300 -4.648960 12.074600 -19.184999 -6.631500 -0.000000 0.000000 0.000000 -0.000000 0.000000 0.000000 -0.000000 0.000000 0.000000 83.831100 32.991798 -10.204000 -16.882799 -9.533810 31.559500 -0.551871 20.622101 3.031730 -0.000000 0.000000 -0.000000 -0.000000 0.000000 0.000000 -0.000000 0.000000 -0.000000 7.730910 5.474880 0.417314 -0.000000 0.000000 -0.000000 2.905540 0.965183 0.102902 -0.000000 0.000000 -0.000000 10.278600 0.731801 0.025912 -0.000000 0.000000 -0.000000 2.221670 -0.733487 -0.208920 -0.000000 0.000000 0.000000 -82.072601 33.144798 9.834470 15.968800 -8.658150 -29.607201 0.251228 14.121400 -2.026300 -0.000000 -0.000000 0.000000 -0.000000 -0.000000 0.000000 -0.000000 -0.000000 0.000000 -7.730910 5.474880 -0.417314 -0.000000 -0.000000 0.000000 -2.905540 0.965183 -0.102902 -0.000000 -0.000000 0.000000 -10.278600 0.731801 -0.025912 -0.000000 -0.000000 0.000000 -2.221670 -0.733487 0.208920 -0.000000 0.000000 -0.000000 8.172680 -28.938499 9.033910 -0.235098 35.000801 0.311691 -6.725840 -10.563700 -23.923201 0.000000 0.000000 0.000000 -5.426800 3.556180 -12.115500 0.153920 23.169500 -0.282955 0.553779 -11.317300 2.371220 
48.603500 84.853500 219.136993 -180.701996 -6.021000 181.358002 -3.009010 4.578360 1.958630 0.606288 -8.975530 0.644356 -7.839050 10.119000 -4.650690 11.983500 -19.281000 -6.635840 -0.000000 0.000000 0.000000 -0.000000 0.000000 0.000000 -0.000000 0.000000 0.000000 84.020203 33.256699 -10.389100 -16.979900 -9.630300 31.770100 -0.540065 20.414600 2.998380 -0.000000 -0.000000 0.000000 -0.000000 -0.000000 0.000000 -0.000000 -0.000000 0.000000 7.730910 5.474880 0.417314 -0.000000 -0.000000 0.000000 2.905540 0.965183 0.102902 -0.000000 -0.000000 0.000000 10.278600 0.731801 0.025912 -0.000000 -0.000000 0.000000 2.221670 -0.733487 -0.208920 -0.000000 0.000000 0.000000 -82.023102 33.024399 9.910020 15.968900 -8.658100 -29.607599 0.257535 14.289900 -2.051550 -0.000000 -0.000000 0.000000 -0.000000 -0.000000 0.000000 -0.000000 -0.000000 0.000000 -7.730910 5.474880 -0.417314 -0.000000 -0.000000 0.000000 -2.905540 0.965183 -0.102902 -0.000000 -0.000000 0.000000 -10.278600 0.731801 -0.025912 -0.000000 -0.000000 0.000000 -2.221670 -0.733487 0.208920 -0.000000 0.000000 -0.000000 8.362360 -28.808500 8.926340 -0.236624 35.094299 0.311640 -6.687220 -10.760000 -23.548000 0.000000 0.000000 0.000000 -5.254830 3.592820 -12.058600 0.155915 23.369101 -0.283347 0.431870 -10.972400 2.020240 
48.774601 84.838997 218.654999 -180.608994 -5.892700 181.427994 -2.965410 4.483580 2.039320 0.573504 -8.997720 0.667355 -7.765820 10.083400 -4.649020 11.897300 -19.363701 -6.635950 -0.000000 0.000000 0.000000 -0.000000 0.000000 0.000000 -0.000000 0.000000 0.000000 84.237099 33.543301 -10.591200 -17.076700 -9.727260 31.980600 -0.524731 20.139700 2.954390 0.000000 -0.000000 0.000000 0.000000 -0.000000 0.000000 0.000000 -0.000000 0.000000 7.730910 5.474880 0.417314 0.000000 -0.000000 0.000000 2.905540 0.965183 0.102902 0.000000 -0.000000 0.000000 10.278600 0.731801 0.025912 0.000000 -0.000000 0.000000 2.221670 -0.733487 -0.208920 -0.000000 0.000000 0.000000 -81.975304 32.890900 10.006200 15.971100 -8.660160 -29.612101 0.263203 14.442500 -2.074410 0.000000 0.000000 -0.000000 0.000000 0.000000 -0.000000 0.000000 0.000000 -0.000000 -7.730910 5.474880 -0.417314 0.000000 0.000000 -0.000000 -2.905540 0.965183 -0.102902 0.000000 0.000000 -0.000000 -10.278600 0.731801 -0.025912 0.000000 0.000000 -0.000000 -2.221670 -0.733487 0.208920 -0.000000 0.000000 -0.000000 8.564010 -28.657400 8.826160 -0.237736 35.166901 0.310450 -6.648210 -10.928800 -23.220600 0.000000 0.000000 0.000000 -5.071470 3.619430 -11.990000 0.158162 23.591400 -0.283965 0.313844 -10.592000 1.672290 
48.942101 84.823898 218.192001 -180.554001 -5.767500 181.516998 -2.936330 4.407400 2.069890 0.561385 -9.003130 0.677879 -7.726940 10.038700 -4.628720 11.860900 -19.447001 -6.585900 -0.000000 0.000000 0.000000 -0.000000 0.000000 0.000000 -0.000000 0.000000 -0.000000 84.418900 33.850399 -10.763200 -17.176300 -9.827790 32.197601 -0.513457 19.932699 2.921390 0.000000 -0.000000 0.000000 0.000000 -0.000000 0.000000 0.000000 -0.000000 0.000000 7.730910 5.474880 0.417314 0.000000 -0.000000 0.000000 2.905540 0.965183 0.102902 0.000000 -0.000000 0.000000 10.278600 0.731801 0.025912 0.000000 -0.000000 0.000000 2.221670 -0.733487 -0.208920 -0.000000 0.000000 -0.000000 -81.940201 32.763199 10.118600 15.996000 -8.683470 -29.664200 0.261182 14.397600 -2.067590 0.000000 0.000000 -0.000000 0.000000 0.000000 -0.000000 0.000000 0.000000 -0.000000 -7.730910 5.474880 -0.417314 0.000000 0.000000 -0.000000 -2.905540 0.965183 -0.102902 0.000000 0.000000 -0.000000 -10.278600 0.731801 -0.025912 0.000000 0.000000 -0.000000 -2.221670 -0.733487 0.208920 -0.000000 0.000000 -0.000000 8.738130 -28.466700 8.712370 -0.238428 35.217800 0.308402 -6.610140 -11.033000 -22.986000 0.000000 0.000000 0.000000 -4.891000 3.630690 -11.866600 0.160733 23.862400 -0.285857 0.222048 -10.151000 1.397950 
49.091599 84.828697 217.735001 -180.606995 -5.757800 181.533997 -2.935310 4.363640 2.023000 0.576988 -8.981540 0.668398 -7.739240 9.971790 -4.580490 11.903600 -19.533501 -6.458140 -0.000000 0.000000 0.000000 -0.000000 0.000000 0.000000 -0.000000 0.000000 -0.000000 84.538902 34.188702 -10.879900 -17.282499 -9.935790 32.429401 -0.508489 19.839500 2.906580 0.000000 -0.000000 0.000000 0.000000 -0.000000 0.000000 0.000000 -0.000000 0.000000 7.730910 5.474880 0.417314 0.000000 -0.000000 0.000000 2.905540 0.965183 0.102902 0.000000 -0.000000 0.000000 10.278600 0.731801 0.025912 0.000000 -0.000000 0.000000 2.221670 -0.733487 -0.208920 -0.000000 0.000000 -0.000000 -81.911797 32.657600 10.238200 16.055799 -8.739360 -29.789700 0.246533 14.020400 -2.010950 0.000000 0.000000 -0.000000 0.000000 0.000000 -0.000000 0.000000 0.000000 -0.000000 -7.730910 5.474880 -0.417314 0.000000 0.000000 -0.000000 -2.905540 0.965183 -0.102902 0.000000 0.000000 -0.000000 -10.278600 0.731801 -0.025912 0.000000 0.000000 -0.000000 -2.221670 -0.733487 0.208920 -0.000000 0.000000 -0.000000 8.861130 -28.228100 8.566070 -0.238733 35.245201 0.305803 -6.568800 -11.020200 -22.889999 0.000000 0.000000 0.000000 -4.716260 3.639760 -11.664700 0.163492 24.171400 -0.289151 0.170033 -9.647460 1.243320 
49.201599 84.841904 217.195999 -180.755005 -5.776700 181.535004 -2.945620 4.341080 1.927820 0.603982 -8.948100 0.646079 -7.781540 9.892680 -4.514240 11.996200 -19.615999 -6.282130 -0.000000 0.000000 0.000000 -0.000000 0.000000 0.000000 -0.000000 -0.000000 -0.000000 84.633499 34.555599 -10.970500 -17.392500 -10.048400 32.670399 -0.505593 19.784800 2.897910 0.000000 -0.000000 0.000000 0.000000 -0.000000 0.000000 0.000000 -0.000000 0.000000 7.730910 5.474880 0.417314 0.000000 -0.000000 0.000000 2.905540 0.965183 0.102902 0.000000 -0.000000 0.000000 10.278600 0.731801 0.025912 0.000000 -0.000000 0.000000 2.221670 -0.733487 -0.208920 -0.000000 -0.000000 -0.000000 -81.887100 32.560299 10.369900 16.136801 -8.815280 -29.960899 0.225434 13.436400 -1.923820 0.000000 0.000000 -0.000000 0.000000 0.000000 -0.000000 0.000000 0.000000 -0.000000 -7.730910 5.474880 -0.417314 0.000000 0.000000 -0.000000 -2.905540 0.965183 -0.102902 0.000000 0.000000 -0.000000 -10.278600 0.731801 -0.025912 0.000000 0.000000 -0.000000 -2.221670 -0.733487 0.208920 -0.000000 0.000000 -0.000000 8.959280 -27.952499 8.403400 -0.238643 35.250099 0.302426 -6.526310 -10.924100 -22.897699 0.000000 0.000000 0.000000 -4.539910 3.644580 -11.411500 0.166486 24.510401 -0.293357 0.141356 -9.093580 1.161310 
